<?xml version="1.0" encoding="UTF-8" standalone="no"?>
<!DOCTYPE svg PUBLIC "-//W3C//DTD SVG 1.1//EN" "http://www.w3.org/Graphics/SVG/1.1/DTD/svg11.dtd">
<svg xmlns:dc="http://purl.org/dc/elements/1.1/" xmlns:xl="http://www.w3.org/1999/xlink" version="1.1" xmlns="http://www.w3.org/2000/svg" viewBox="0 0 70 31.353" width="70" height="31.353">
  <defs/>
  <metadata> Produced by OmniGraffle 7.8.1 
    <dc:date>2020-02-16 13:35:34 +0000</dc:date>
  </metadata>
  <g id="Canvas_1" fill-opacity="1" stroke-dasharray="none" stroke="none" stroke-opacity="1" fill="none">
    <title>版面 1</title>
    <g id="Canvas_1: 图层 1">
      <title>图层 1</title>
      <g id="Group_3">
        <title>Group_1040</title>
        <g id="Graphic_14">
          <title>add</title>
          <path d="M 15.348684 4.3692183 L 15.01239 4.182815 C 15.007112 4.17989 15.003213 4.1749883 15.00155 4.1691885 C 14.999887 4.1633887 15.000596 4.157166 15.00352 4.1518886 L 15.189614 3.8161544 C 15.21182 3.7806853 15.212627 3.735854 15.191713 3.699608 C 15.1708 3.663362 15.131583 3.6416246 15.089762 3.643098 C 15.047941 3.6445712 15.010351 3.6690145 14.99204 3.7066424 L 14.805637 4.042937 C 14.799546 4.053926 14.7857 4.057897 14.77471 4.0518057 L 14.438416 3.8654023 C 14.384349 3.8390917 14.319147 3.8596824 14.289996 3.9122727 C 14.260846 3.964863 14.277939 4.0310686 14.328904 4.0629755 L 14.665199 4.249379 C 14.670476 4.252304 14.674375 4.2572055 14.676038 4.2630053 C 14.677701 4.268805 14.676992 4.275028 14.674067 4.280305 L 14.487664 4.6166 C 14.465458 4.652069 14.46465 4.6969 14.485564 4.733146 C 14.506477 4.7693923 14.545694 4.79113 14.587515 4.7896564 C 14.629336 4.788183 14.666926 4.76374 14.685237 4.726112 L 14.87164 4.389817 C 14.874467 4.3843597 14.879382 4.3802783 14.885266 4.378502 C 14.89115 4.376726 14.897503 4.3774063 14.902877 4.380388 L 15.239172 4.5667915 C 15.293239 4.593102 15.358441 4.5725115 15.387591 4.519921 C 15.416742 4.4673307 15.39965 4.401125 15.348684 4.3692183 L 15.348684 4.3692183" fill="#222"/>
        </g>
        <g id="Graphic_13">
          <title>minus</title>
          <path d="M 14.1735 2.4845425 L 13.449638 2.837214 C 13.387461 2.867507 13.361614 2.942469 13.391907 3.004646 C 13.4222 3.066823 13.497162 3.09267 13.55934 3.062377 L 14.283202 2.7097056 C 14.345379 2.6794124 14.371226 2.6044505 14.340932 2.5422734 C 14.31064 2.4800963 14.235677 2.4542493 14.1735 2.4845425 Z" fill="#222"/>
        </g>
        <g id="Group_10">
          <title>Ellipse_359</title>
          <g id="Graphic_12"/>
          <g id="Graphic_11">
            <circle cx="12.765834" cy="4.3944404" r="0.322843683807974" stroke="#222" stroke-linecap="butt" stroke-linejoin="round" stroke-width=".25622465"/>
          </g>
        </g>
        <g id="Graphic_4">
          <title>Path_28966</title>
          <path d="M 15.310785 10.925605 L 14.069697 8.894384 C 14.041408 8.848173 13.991124 8.819997 13.93694 8.819997 C 13.882758 8.819997 13.832474 8.848173 13.804184 8.894384 L 12.563096 10.925605 C 12.523037 10.991703 12.537546 11.077184 12.597171 11.126363 C 12.656796 11.175541 12.743476 11.17352 12.800745 11.121616 C 13.447367 10.540507 14.428116 10.540507 15.074738 11.121616 C 15.13176 11.174423 15.219032 11.176961 15.279027 11.127559 C 15.339021 11.078156 15.353273 10.992018 15.312387 10.925925 Z" fill="#222"/>
        </g>
        <g id="Graphic_7">
          <title>Path_28989</title>
          <path d="M 12.525623 8.339338 C 13.110162 8.068529 13.796773 8.145052 14.307346 8.537912 C 15.564448 8.886057 15.814267 8.717269 15.814267 8.717269 C 15.814267 8.717269 16.430167 12.09559 14.133433 12.281993 C 11.8367 12.468397 12.525623 8.339338 12.525623 8.339338 Z" fill="black"/>
        </g>
        <g id="Graphic_6">
          <title>Path_28990</title>
          <path d="M 15.728432 8.580509 C 15.272546 8.059578 14.482848 8.001235 13.955357 8.449514 C 13.53461 8.813879 12.927398 8.86672 12.450037 8.580509 C 12.450037 8.580509 10.926782 10.945142 11.06258 11.967157 C 11.350833 12.71181 13.060492 12.18655 14.032545 12.264058 C 15.091073 12.348612 16.683189 12.824549 17.090266 11.967157 C 17.009555 10.962437 15.746047 8.601968 15.728432 8.580509 Z" fill="black"/>
        </g>
        <g id="Graphic_5">
          <title>Path_28991</title>
          <path d="M 17.250086 11.720862 L 15.149044 7.090243 C 15.122747 7.022632 15.108126 6.951045 15.105806 6.878538 L 15.105806 6.451924 C 15.111866 6.38726 15.150178 6.330032 15.207655 6.29979 C 15.398059 6.194707 15.493013 5.9739256 15.438332 5.7634354 C 15.383652 5.552945 15.193247 5.406294 14.975772 5.407168 L 13.214227 5.407168 C 13.005328 5.406781 12.820527 5.5424836 12.75836 5.741918 C 12.696192 5.941353 12.771152 6.158027 12.94327 6.27641 C 12.997759 6.31335 13.032975 6.372631 13.039354 6.438152 L 13.039354 6.931064 C 13.036913 7.003357 13.02117 7.074581 12.992913 7.141168 L 10.862725 11.723104 C 10.776436 11.883741 10.779343 12.077576 10.870412 12.235553 C 10.974931 12.384959 11.149234 12.469749 11.331296 12.459749 L 16.763259 12.459749 C 16.947095 12.476693 17.12535 12.391145 17.227137 12.237125 C 17.328924 12.083105 17.337743 11.885582 17.250086 11.723104 Z M 16.94646 11.930966 C 16.94646 11.930966 17.063042 12.108401 16.876959 12.117049 C 16.876959 12.134024 12.678077 12.133703 11.24418 12.117049 C 11.066744 12.117049 11.151298 11.946019 11.151298 11.946019 C 11.151298 11.940894 12.336337 9.337973 12.36196 9.282885 L 13.322802 7.214192 C 13.348847 7.147195 13.36231 7.0759686 13.362517 7.004088 L 13.362517 6.1572654 C 13.362517 6.0877645 13.328888 6.031395 13.287571 6.031395 L 13.213266 6.031395 C 13.134828 6.027731 13.073117 5.96307 13.073117 5.8845464 C 13.073117 5.806023 13.134828 5.741362 13.213266 5.737698 L 14.97481 5.737698 C 15.053249 5.741362 15.11496 5.806023 15.11496 5.8845464 C 15.11496 5.96307 15.053249 6.027731 14.97481 6.031395 L 14.876164 6.031395 C 14.81475 6.03987 14.771195 6.095626 14.777838 6.1572654 L 14.777838 6.946437 C 14.779032 7.0187415 14.79246 7.090322 14.817553 7.158143 L 15.723307 9.281604 C 15.748289 9.337333 16.961513 11.93609 16.94646 11.930966 Z" fill="#030104"/>
        </g>
        <g id="Graphic_16">
          <title>Shape</title>
          <path d="M 53.336104 1.5133801 C 42.87221 1.5133801 34.244083 9.955891 26.442055 16.96825 C 24.193235 14.98449 21.66905 12.539392 19.74149 10.232695 C 19.557913 10.002025 19.282547 9.955891 19.144864 10.048159 C 18.961287 10.186561 18.915393 10.463365 19.09897 10.6479 C 20.888847 12.86233 23.27535 15.538098 25.52417 17.798661 C 21.34779 21.76618 14.968484 26.56411 9.828325 26.56411 C -.54378307 26.56411 -.58967735 12.124187 8.497391 9.402284 C 8.910439 9.310016 8.910439 8.802543 8.497391 8.940945 C -3.3892286 11.893517 -2.7467086 28.732405 10.057796 28.732405 C 16.161736 28.732405 21.760838 24.626484 27.405835 19.78242 C 33.509774 25.318494 41.220014 29.83962 51.13318 29.83962 C 76.283245 29.83962 75.54894 1.5133801 53.336104 1.5133801 Z M 50.9496 27.671325 C 43.00989 27.62519 35.29965 24.11901 28.553192 18.813608 C 36.217537 12.124187 43.97367 4.4659523 53.10663 4.4659523 C 70.913614 4.4659523 71.37256 27.809726 50.9496 27.671325 Z" fill="#1d1d1d"/>
        </g>
      </g>
    </g>
  </g>
</svg>
