<?xml version="1.0" encoding="UTF-8" standalone="no"?>
<!DOCTYPE svg PUBLIC "-//W3C//DTD SVG 1.1//EN" "http://www.w3.org/Graphics/SVG/1.1/DTD/svg11.dtd">
<svg xmlns:dc="http://purl.org/dc/elements/1.1/" xmlns:xl="http://www.w3.org/1999/xlink" version="1.1" xmlns="http://www.w3.org/2000/svg" viewBox="0 0 196.82 31.353" width="196.82" height="31.353">
  <defs/>
  <metadata> Produced by OmniGraffle 7.8.1 
    <dc:date>2020-02-16 13:25:22 +0000</dc:date>
  </metadata>
  <g id="Canvas_1" fill-opacity="1" stroke-dasharray="none" stroke="none" stroke-opacity="1" fill="none">
    <title>版面 1</title>
    <g id="Canvas_1: 图层 1">
      <title>图层 1</title>
      <g id="Group_3">
        <title>Group_1040</title>
        <g id="Graphic_14">
          <title>add</title>
          <path d="M 88.94869 4.0973553 L 88.61239 3.910952 C 88.60711 3.908027 88.60321 3.9031253 88.60155 3.8973255 C 88.59989 3.8915257 88.6006 3.8853027 88.60352 3.8800256 L 88.78961 3.5442913 C 88.81182 3.5088222 88.81263 3.463991 88.79171 3.427745 C 88.7708 3.391499 88.73158 3.3697616 88.68976 3.371235 C 88.64794 3.372708 88.61035 3.3971515 88.59204 3.4347794 L 88.40564 3.771074 C 88.39955 3.782063 88.3857 3.7860338 88.37471 3.7799427 L 88.03842 3.5935393 C 87.98435 3.5672286 87.91915 3.5878193 87.89 3.6404097 C 87.86085 3.693 87.87794 3.7592056 87.9289 3.7911125 L 88.2652 3.977516 C 88.27048 3.980441 88.27438 3.9853424 88.27604 3.9911423 C 88.2777 3.996942 88.27699 4.003165 88.27407 4.008442 L 88.08766 4.344737 C 88.06546 4.380206 88.06465 4.425037 88.08556 4.461283 C 88.10648 4.4975293 88.1457 4.5192667 88.18752 4.5177934 C 88.22934 4.51632 88.26693 4.491877 88.28524 4.454249 L 88.47164 4.117954 C 88.47447 4.1124966 88.47938 4.1084153 88.48527 4.106639 C 88.49115 4.104863 88.4975 4.1055433 88.50288 4.108525 L 88.83917 4.2949284 C 88.89324 4.321239 88.95844 4.3006484 88.98759 4.248058 C 89.01674 4.1954677 88.99965 4.129262 88.94869 4.0973553 L 88.94869 4.0973553" fill="#222"/>
        </g>
        <g id="Graphic_13">
          <title>minus</title>
          <path d="M 87.7735 2.2126795 L 87.04964 2.5653508 C 86.98746 2.595644 86.96162 2.670606 86.99191 2.732783 C 87.0222 2.79496 87.09716 2.820807 87.15934 2.790514 L 87.8832 2.4378426 C 87.94538 2.4075494 87.97123 2.3325875 87.94093 2.2704104 C 87.91064 2.2082333 87.83568 2.1823863 87.7735 2.2126795 Z" fill="#222"/>
        </g>
        <g id="Group_10">
          <title>Ellipse_359</title>
          <g id="Graphic_12"/>
          <g id="Graphic_11">
            <circle cx="86.36584" cy="4.1225774" r="0.322843683807973" stroke="#222" stroke-linecap="butt" stroke-linejoin="round" stroke-width=".25622465"/>
          </g>
        </g>
        <g id="Graphic_4">
          <title>Path_28966</title>
          <path d="M 88.91079 10.653742 L 87.6697 8.622521 C 87.64141 8.57631 87.59112 8.548134 87.53694 8.548134 C 87.48276 8.548134 87.43247 8.57631 87.40419 8.622521 L 86.1631 10.653742 C 86.12304 10.71984 86.13755 10.805321 86.19717 10.8545 C 86.2568 10.903678 86.34348 10.901657 86.40075 10.849753 C 87.04737 10.268644 88.02812 10.268644 88.67474 10.849753 C 88.73176 10.90256 88.81903 10.905098 88.87903 10.855696 C 88.93902 10.806293 88.95327 10.720155 88.91239 10.654062 Z" fill="#222"/>
        </g>
        <g id="Graphic_7">
          <title>Path_28989</title>
          <path d="M 86.12562 8.067475 C 86.71016 7.796666 87.39677 7.873189 87.90735 8.266049 C 89.16445 8.614194 89.41427 8.445406 89.41427 8.445406 C 89.41427 8.445406 90.03017 11.823727 87.73343 12.01013 C 85.4367 12.196534 86.12562 8.067475 86.12562 8.067475 Z" fill="black"/>
        </g>
        <g id="Graphic_6">
          <title>Path_28990</title>
          <path d="M 89.32843 8.308646 C 88.87255 7.787715 88.08285 7.729372 87.55536 8.177651 C 87.13461 8.542016 86.5274 8.594856 86.05004 8.308646 C 86.05004 8.308646 84.52678 10.673279 84.66258 11.695294 C 84.95083 12.439947 86.66049 11.914687 87.63255 11.992195 C 88.69107 12.076749 90.28319 12.552686 90.69027 11.695294 C 90.60956 10.690574 89.34605 8.330105 89.32843 8.308646 Z" fill="black"/>
        </g>
        <g id="Graphic_5">
          <title>Path_28991</title>
          <path d="M 90.85009 11.448999 L 88.74904 6.81838 C 88.72275 6.750769 88.70813 6.679182 88.70581 6.6066746 L 88.70581 6.180061 C 88.71187 6.115397 88.75018 6.058169 88.80766 6.027927 C 88.99806 5.922844 89.09301 5.7020626 89.03833 5.4915724 C 88.98365 5.281082 88.79325 5.134431 88.57577 5.135305 L 86.81423 5.135305 C 86.60533 5.134918 86.42053 5.2706206 86.35836 5.470055 C 86.29619 5.66949 86.37115 5.886164 86.54327 6.004547 C 86.59776 6.041487 86.63298 6.1007676 86.63935 6.1662886 L 86.63935 6.6592006 C 86.63691 6.731494 86.62117 6.802718 86.59291 6.869305 L 84.46273 11.45124 C 84.37644 11.611878 84.37934 11.805713 84.47041 11.96369 C 84.57493 12.113096 84.74924 12.197886 84.9313 12.187886 L 90.36326 12.187886 C 90.5471 12.20483 90.72535 12.119282 90.82714 11.965262 C 90.92893 11.811242 90.93774 11.613719 90.85009 11.45124 Z M 90.54646 11.659103 C 90.54646 11.659103 90.66304 11.836538 90.47696 11.845186 C 90.47696 11.86216 86.27808 11.86184 84.84418 11.845186 C 84.66675 11.845186 84.7513 11.674156 84.7513 11.674156 C 84.7513 11.669031 85.93634 9.06611 85.96196 9.011022 L 86.9228 6.942329 C 86.94885 6.875332 86.96231 6.8041055 86.96252 6.7322246 L 86.96252 5.8854024 C 86.96252 5.8159015 86.92889 5.759532 86.88757 5.759532 L 86.81327 5.759532 C 86.73483 5.755868 86.67312 5.691207 86.67312 5.6126834 C 86.67312 5.53416 86.73483 5.469499 86.81327 5.4658347 L 88.57481 5.4658347 C 88.65325 5.469499 88.71496 5.53416 88.71496 5.6126834 C 88.71496 5.691207 88.65325 5.755868 88.57481 5.759532 L 88.47617 5.759532 C 88.41475 5.768007 88.3712 5.823763 88.37784 5.8854024 L 88.37784 6.674574 C 88.37903 6.7468784 88.39246 6.818459 88.41755 6.88628 L 89.32331 9.009741 C 89.34829 9.06547 90.56151 11.664227 90.54646 11.659103 Z" fill="#030104"/>
        </g>
      </g>
      <g id="Graphic_15">
        <title>Shape</title>
        <path d="M 128.2047 1.241517 C 117.49193 1.241517 108.65858 9.88484 100.67098 17.063993 C 98.36867 15.033048 95.78445 12.52979 93.81104 10.168227 C 93.6231 9.932071 93.34118 9.88484 93.20023 9.979302 C 93.01228 10.120996 92.9653 10.404383 93.15324 10.593309 C 94.98569 12.86041 97.42896 15.599823 99.73126 17.914155 C 95.45555 21.976045 88.92451 26.888097 83.66209 26.888097 C 73.04328 26.888097 72.9963 12.104709 82.2995 9.318064 C 82.72238 9.223602 82.72238 8.704058 82.2995 8.845752 C 70.13016 11.868553 70.78796 29.107967 83.89702 29.107967 C 90.14614 29.107967 95.87842 24.904383 101.65768 19.9451 C 107.90681 25.612852 115.80043 30.241517 125.94938 30.241517 C 151.69765 30.241517 150.94587 1.241517 128.2047 1.241517 Z M 125.76144 28.021647 C 117.63288 27.974416 109.73926 24.38484 102.83233 18.953243 C 110.67897 12.104709 118.61959 4.2643184 127.96978 4.2643184 C 146.2003 4.2643184 146.67016 28.16334 125.76144 28.021647 Z" fill="#1d1d1d"/>
      </g>
    </g>
  </g>
</svg>
