<?xml version="1.0" encoding="UTF-8" standalone="no"?>
<!DOCTYPE svg PUBLIC "-//W3C//DTD SVG 1.1//EN" "http://www.w3.org/Graphics/SVG/1.1/DTD/svg11.dtd">
<svg xmlns:dc="http://purl.org/dc/elements/1.1/" xmlns:xl="http://www.w3.org/1999/xlink" version="1.1" xmlns="http://www.w3.org/2000/svg" viewBox="0 0 72 31.353" width="72" height="31.353">
  <defs/>
  <metadata> Produced by OmniGraffle 7.8.1 
    <dc:date>2020-02-16 13:40:54 +0000</dc:date>
  </metadata>
  <g id="Canvas_1" fill-opacity="1" stroke-dasharray="none" stroke="none" stroke-opacity="1" fill="none">
    <title>版面 1</title>
    <g id="Canvas_1: 图层 1">
      <title>图层 1</title>
      <g id="Group_3">
        <title>Group_1040</title>
        <g id="Graphic_14">
          <title>add</title>
          <path d="M 16.348684 4.3692183 L 16.01239 4.182815 C 16.007112 4.17989 16.003213 4.1749883 16.00155 4.1691885 C 15.999887 4.1633887 16.000596 4.157166 16.00352 4.1518886 L 16.189614 3.8161544 C 16.21182 3.7806853 16.212627 3.735854 16.191713 3.699608 C 16.1708 3.663362 16.131583 3.6416246 16.089762 3.643098 C 16.047941 3.6445712 16.010351 3.6690145 15.99204 3.7066424 L 15.805637 4.042937 C 15.799546 4.053926 15.7857 4.057897 15.77471 4.0518057 L 15.438416 3.8654023 C 15.384349 3.8390917 15.319147 3.8596824 15.289996 3.9122727 C 15.260846 3.964863 15.277939 4.0310686 15.328904 4.0629755 L 15.665199 4.249379 C 15.670476 4.252304 15.674375 4.2572055 15.676038 4.2630053 C 15.677701 4.268805 15.676992 4.275028 15.674067 4.280305 L 15.487664 4.6166 C 15.465458 4.652069 15.46465 4.6969 15.485564 4.733146 C 15.506477 4.7693923 15.545694 4.79113 15.587515 4.7896564 C 15.629336 4.788183 15.666926 4.76374 15.685237 4.726112 L 15.87164 4.389817 C 15.874467 4.3843597 15.879382 4.3802783 15.885266 4.378502 C 15.89115 4.376726 15.897503 4.3774063 15.902877 4.380388 L 16.239172 4.5667915 C 16.293239 4.593102 16.358441 4.5725115 16.387591 4.519921 C 16.416742 4.4673307 16.39965 4.401125 16.348684 4.3692183 L 16.348684 4.3692183" fill="#222"/>
        </g>
        <g id="Graphic_13">
          <title>minus</title>
          <path d="M 15.1735 2.4845425 L 14.449638 2.837214 C 14.387461 2.867507 14.361614 2.942469 14.391907 3.004646 C 14.4222 3.066823 14.497162 3.09267 14.55934 3.062377 L 15.283202 2.7097056 C 15.345379 2.6794124 15.371226 2.6044505 15.340932 2.5422734 C 15.31064 2.4800963 15.235677 2.4542493 15.1735 2.4845425 Z" fill="#222"/>
        </g>
        <g id="Group_10">
          <title>Ellipse_359</title>
          <g id="Graphic_12"/>
          <g id="Graphic_11">
            <circle cx="13.765834" cy="4.3944404" r="0.322843683807974" stroke="#222" stroke-linecap="butt" stroke-linejoin="round" stroke-width=".25622465"/>
          </g>
        </g>
        <g id="Graphic_4">
          <title>Path_28966</title>
          <path d="M 16.310785 10.925605 L 15.069697 8.894384 C 15.041408 8.848173 14.991124 8.819997 14.93694 8.819997 C 14.882758 8.819997 14.832474 8.848173 14.804184 8.894384 L 13.563096 10.925605 C 13.523037 10.991703 13.537546 11.077184 13.59717 11.126363 C 13.656796 11.175541 13.743476 11.17352 13.800745 11.121616 C 14.447367 10.540507 15.428116 10.540507 16.074738 11.121616 C 16.13176 11.174423 16.219032 11.176961 16.279027 11.127559 C 16.339021 11.078156 16.353273 10.992018 16.312387 10.925925 Z" fill="#222"/>
        </g>
        <g id="Graphic_7">
          <title>Path_28989</title>
          <path d="M 13.525623 8.339338 C 14.110162 8.068529 14.796773 8.145052 15.307346 8.537912 C 16.564448 8.886057 16.814267 8.717269 16.814267 8.717269 C 16.814267 8.717269 17.430167 12.09559 15.133433 12.281993 C 12.8367 12.468397 13.525623 8.339338 13.525623 8.339338 Z" fill="black"/>
        </g>
        <g id="Graphic_6">
          <title>Path_28990</title>
          <path d="M 16.728432 8.580509 C 16.272546 8.059578 15.482848 8.001235 14.955357 8.449514 C 14.53461 8.813879 13.927398 8.86672 13.450037 8.580509 C 13.450037 8.580509 11.926782 10.945142 12.06258 11.967157 C 12.350833 12.71181 14.060492 12.18655 15.032545 12.264058 C 16.091073 12.348612 17.683189 12.824549 18.090266 11.967157 C 18.009555 10.962437 16.746047 8.601968 16.728432 8.580509 Z" fill="black"/>
        </g>
        <g id="Graphic_5">
          <title>Path_28991</title>
          <path d="M 18.250086 11.720862 L 16.149044 7.090243 C 16.122747 7.022632 16.108126 6.951045 16.105806 6.878538 L 16.105806 6.451924 C 16.111866 6.38726 16.150178 6.330032 16.207655 6.29979 C 16.398059 6.194707 16.493013 5.9739256 16.438332 5.7634354 C 16.383652 5.552945 16.193247 5.406294 15.975772 5.407168 L 14.214227 5.407168 C 14.005328 5.406781 13.820527 5.5424836 13.75836 5.741918 C 13.696192 5.941353 13.771152 6.158027 13.94327 6.27641 C 13.997759 6.31335 14.032975 6.372631 14.039354 6.438152 L 14.039354 6.931064 C 14.036913 7.003357 14.02117 7.074581 13.992913 7.141168 L 11.862725 11.723104 C 11.776436 11.883741 11.779343 12.077576 11.870412 12.235553 C 11.974931 12.384959 12.149234 12.469749 12.331296 12.459749 L 17.763259 12.459749 C 17.947095 12.476693 18.12535 12.391145 18.227137 12.237125 C 18.328924 12.083105 18.337743 11.885582 18.250086 11.723104 Z M 17.94646 11.930966 C 17.94646 11.930966 18.063042 12.108401 17.876959 12.117049 C 17.876959 12.134024 13.678077 12.133703 12.24418 12.117049 C 12.066744 12.117049 12.151298 11.946019 12.151298 11.946019 C 12.151298 11.940894 13.336337 9.337973 13.36196 9.282885 L 14.322802 7.214192 C 14.348847 7.147195 14.36231 7.0759686 14.362517 7.004088 L 14.362517 6.1572654 C 14.362517 6.0877645 14.328888 6.031395 14.287571 6.031395 L 14.213266 6.031395 C 14.134828 6.027731 14.073117 5.96307 14.073117 5.8845464 C 14.073117 5.806023 14.134828 5.741362 14.213266 5.737698 L 15.97481 5.737698 C 16.053249 5.741362 16.11496 5.806023 16.11496 5.8845464 C 16.11496 5.96307 16.053249 6.027731 15.97481 6.031395 L 15.876164 6.031395 C 15.81475 6.03987 15.771195 6.095626 15.777838 6.1572654 L 15.777838 6.946437 C 15.779032 7.0187415 15.79246 7.090322 15.817553 7.158143 L 16.723307 9.281604 C 16.748289 9.337333 17.961513 11.93609 17.94646 11.930966 Z" fill="#030104"/>
        </g>
        <g id="Graphic_15">
          <title>Shape</title>
          <path d="M 54.336104 1.5133801 C 43.87221 1.5133801 35.244083 9.955891 27.442055 16.96825 C 25.193235 14.98449 22.66905 12.539392 20.74149 10.232695 C 20.557913 10.002025 20.282547 9.955891 20.144864 10.048159 C 19.961287 10.186561 19.915393 10.463365 20.09897 10.6479 C 21.888847 12.86233 24.27535 15.538098 26.52417 17.798661 C 22.34779 21.76618 15.968484 26.56411 10.828325 26.56411 C .45621693 26.56411 .41032265 12.124187 9.49739 9.402284 C 9.910439 9.310016 9.910439 8.802543 9.49739 8.940945 C -2.3892286 11.893517 -1.7467086 28.732405 11.057796 28.732405 C 17.161736 28.732405 22.760838 24.626484 28.405835 19.78242 C 34.509774 25.318494 42.220014 29.83962 52.13318 29.83962 C 77.283245 29.83962 76.54894 1.5133801 54.336104 1.5133801 Z M 51.9496 27.671325 C 44.00989 27.62519 36.29965 24.11901 29.553192 18.813608 C 37.217537 12.124187 44.97367 4.4659523 54.10663 4.4659523 C 71.913614 4.4659523 72.37256 27.809726 51.9496 27.671325 Z" fill="#1d1d1d"/>
        </g>
      </g>
    </g>
  </g>
</svg>
